<svg xmlns="http://www.w3.org/2000/svg" xmlns:xlink="http://www.w3.org/1999/xlink" width="500" zoomAndPan="magnify" viewBox="0 0 375 374.999991" height="500" preserveAspectRatio="xMidYMid meet" version="1.0"><defs><g/><clipPath id="bc0fd819e9"><path d="M 10 4 L 15 4 L 15 10.601562 L 10 10.601562 Z M 10 4 " clip-rule="nonzero"/></clipPath><clipPath id="27b407eaa0"><path d="M 55 4 L 60 4 L 60 10.601562 L 55 10.601562 Z M 55 4 " clip-rule="nonzero"/></clipPath><clipPath id="ad883190da"><path d="M 73 4 L 77 4 L 77 10.601562 L 73 10.601562 Z M 73 4 " clip-rule="nonzero"/></clipPath><clipPath id="a4a945dc49"><rect x="0" width="79" y="0" height="11"/></clipPath></defs><g fill="#000000" fill-opacity="1"><g transform="translate(53.34364, 201.374987)"><g><path d="M 3.078125 -42.25 L 16.1875 -42.25 C 20.144531 -42.25 23.300781 -41.398438 25.65625 -39.703125 C 28.007812 -38.015625 29.1875 -35.273438 29.1875 -31.484375 C 29.1875 -27.253906 27.425781 -24.234375 23.90625 -22.421875 C 29.914062 -21.367188 32.921875 -17.820312 32.921875 -11.78125 C 32.921875 -8.226562 31.691406 -5.375 29.234375 -3.21875 C 26.773438 -1.070312 23.394531 0 19.09375 0 L 3.078125 0 Z M 12.703125 -25.703125 L 13.46875 -25.703125 C 15.613281 -25.703125 17.210938 -26.078125 18.265625 -26.828125 C 19.328125 -27.578125 19.859375 -28.804688 19.859375 -30.515625 C 19.859375 -33.378906 17.726562 -34.8125 13.46875 -34.8125 L 12.703125 -34.8125 Z M 12.703125 -7.421875 L 15.71875 -7.421875 C 20.425781 -7.421875 22.78125 -8.992188 22.78125 -12.140625 C 22.78125 -14.015625 22.191406 -15.359375 21.015625 -16.171875 C 19.835938 -16.992188 18.070312 -17.40625 15.71875 -17.40625 L 12.703125 -17.40625 Z M 12.703125 -7.421875 "/></g></g></g><g fill="#000000" fill-opacity="1"><g transform="translate(82.628211, 201.374987)"><g><path d="M 3.9375 -40.90625 C 5 -41.96875 6.265625 -42.5 7.734375 -42.5 C 9.203125 -42.5 10.460938 -41.96875 11.515625 -40.90625 C 12.578125 -39.851562 13.109375 -38.59375 13.109375 -37.125 C 13.109375 -35.65625 12.578125 -34.390625 11.515625 -33.328125 C 10.460938 -32.273438 9.203125 -31.75 7.734375 -31.75 C 6.265625 -31.75 5 -32.273438 3.9375 -33.328125 C 2.882812 -34.390625 2.359375 -35.65625 2.359375 -37.125 C 2.359375 -38.59375 2.882812 -39.851562 3.9375 -40.90625 Z M 3.078125 -26.265625 L 3.078125 0 L 12.140625 0 L 12.140625 -26.265625 Z M 3.078125 -26.265625 "/></g></g></g><g fill="#000000" fill-opacity="1"><g transform="translate(93.276263, 201.374987)"><g><path d="M 1.890625 6.453125 L 9.3125 2.8125 C 10.675781 5.070312 13.050781 6.203125 16.4375 6.203125 C 18.007812 6.203125 19.46875 5.695312 20.8125 4.6875 C 22.164062 3.675781 22.84375 2.128906 22.84375 0.046875 L 22.84375 -1.890625 C 21.238281 -0.117188 18.367188 0.765625 14.234375 0.765625 C 10.441406 0.765625 7.316406 -0.570312 4.859375 -3.25 C 2.398438 -5.925781 1.171875 -9.207031 1.171875 -13.09375 C 1.171875 -16.988281 2.398438 -20.285156 4.859375 -22.984375 C 7.316406 -25.679688 10.441406 -27.03125 14.234375 -27.03125 C 17.609375 -27.03125 20.425781 -25.988281 22.6875 -23.90625 L 22.84375 -23.90625 L 22.84375 -26.265625 L 31.90625 -26.265625 L 31.90625 0.71875 C 31.90625 4.988281 30.488281 8.28125 27.65625 10.59375 C 24.820312 12.914062 21.082031 14.078125 16.4375 14.078125 C 8.925781 14.078125 4.078125 11.535156 1.890625 6.453125 Z M 12.5625 -17.5625 C 11.382812 -16.40625 10.796875 -14.921875 10.796875 -13.109375 C 10.796875 -11.296875 11.359375 -9.816406 12.484375 -8.671875 C 13.617188 -7.535156 15.109375 -6.96875 16.953125 -6.96875 C 18.722656 -6.96875 20.179688 -7.546875 21.328125 -8.703125 C 22.472656 -9.867188 23.046875 -11.335938 23.046875 -13.109375 C 23.046875 -14.921875 22.457031 -16.40625 21.28125 -17.5625 C 20.101562 -18.71875 18.660156 -19.296875 16.953125 -19.296875 C 15.210938 -19.296875 13.75 -18.71875 12.5625 -17.5625 Z M 12.5625 -17.5625 "/></g></g></g><g fill="#000000" fill-opacity="1"><g transform="translate(123.431225, 201.374987)"><g><path d="M 1.890625 6.453125 L 9.3125 2.8125 C 10.675781 5.070312 13.050781 6.203125 16.4375 6.203125 C 18.007812 6.203125 19.46875 5.695312 20.8125 4.6875 C 22.164062 3.675781 22.84375 2.128906 22.84375 0.046875 L 22.84375 -1.890625 C 21.238281 -0.117188 18.367188 0.765625 14.234375 0.765625 C 10.441406 0.765625 7.316406 -0.570312 4.859375 -3.25 C 2.398438 -5.925781 1.171875 -9.207031 1.171875 -13.09375 C 1.171875 -16.988281 2.398438 -20.285156 4.859375 -22.984375 C 7.316406 -25.679688 10.441406 -27.03125 14.234375 -27.03125 C 17.609375 -27.03125 20.425781 -25.988281 22.6875 -23.90625 L 22.84375 -23.90625 L 22.84375 -26.265625 L 31.90625 -26.265625 L 31.90625 0.71875 C 31.90625 4.988281 30.488281 8.28125 27.65625 10.59375 C 24.820312 12.914062 21.082031 14.078125 16.4375 14.078125 C 8.925781 14.078125 4.078125 11.535156 1.890625 6.453125 Z M 12.5625 -17.5625 C 11.382812 -16.40625 10.796875 -14.921875 10.796875 -13.109375 C 10.796875 -11.296875 11.359375 -9.816406 12.484375 -8.671875 C 13.617188 -7.535156 15.109375 -6.96875 16.953125 -6.96875 C 18.722656 -6.96875 20.179688 -7.546875 21.328125 -8.703125 C 22.472656 -9.867188 23.046875 -11.335938 23.046875 -13.109375 C 23.046875 -14.921875 22.457031 -16.40625 21.28125 -17.5625 C 20.101562 -18.71875 18.660156 -19.296875 16.953125 -19.296875 C 15.210938 -19.296875 13.75 -18.71875 12.5625 -17.5625 Z M 12.5625 -17.5625 "/></g></g></g><g fill="#000000" fill-opacity="1"><g transform="translate(153.586187, 201.374987)"><g><path d="M 4.859375 -3.25 C 2.398438 -5.925781 1.171875 -9.207031 1.171875 -13.09375 C 1.171875 -16.988281 2.398438 -20.285156 4.859375 -22.984375 C 7.316406 -25.679688 10.441406 -27.03125 14.234375 -27.03125 C 17.710938 -27.03125 20.582031 -25.941406 22.84375 -23.765625 L 22.84375 -26.265625 L 31.90625 -26.265625 L 31.90625 0 L 22.9375 0 L 22.9375 -2.96875 L 22.84375 -2.96875 C 20.582031 -0.476562 17.710938 0.765625 14.234375 0.765625 C 10.441406 0.765625 7.316406 -0.570312 4.859375 -3.25 Z M 12.5625 -17.5625 C 11.382812 -16.40625 10.796875 -14.921875 10.796875 -13.109375 C 10.796875 -11.296875 11.359375 -9.816406 12.484375 -8.671875 C 13.617188 -7.535156 15.109375 -6.96875 16.953125 -6.96875 C 18.722656 -6.96875 20.179688 -7.546875 21.328125 -8.703125 C 22.472656 -9.867188 23.046875 -11.335938 23.046875 -13.109375 C 23.046875 -14.921875 22.457031 -16.40625 21.28125 -17.5625 C 20.101562 -18.71875 18.660156 -19.296875 16.953125 -19.296875 C 15.210938 -19.296875 13.75 -18.71875 12.5625 -17.5625 Z M 12.5625 -17.5625 "/></g></g></g><g fill="#000000" fill-opacity="1"><g transform="translate(183.741149, 201.374987)"><g><path d="M 3.078125 -42.25 L 16.1875 -42.25 C 20.144531 -42.25 23.300781 -41.398438 25.65625 -39.703125 C 28.007812 -38.015625 29.1875 -35.273438 29.1875 -31.484375 C 29.1875 -27.253906 27.425781 -24.234375 23.90625 -22.421875 C 29.914062 -21.367188 32.921875 -17.820312 32.921875 -11.78125 C 32.921875 -8.226562 31.691406 -5.375 29.234375 -3.21875 C 26.773438 -1.070312 23.394531 0 19.09375 0 L 3.078125 0 Z M 12.703125 -25.703125 L 13.46875 -25.703125 C 15.613281 -25.703125 17.210938 -26.078125 18.265625 -26.828125 C 19.328125 -27.578125 19.859375 -28.804688 19.859375 -30.515625 C 19.859375 -33.378906 17.726562 -34.8125 13.46875 -34.8125 L 12.703125 -34.8125 Z M 12.703125 -7.421875 L 15.71875 -7.421875 C 20.425781 -7.421875 22.78125 -8.992188 22.78125 -12.140625 C 22.78125 -14.015625 22.191406 -15.359375 21.015625 -16.171875 C 19.835938 -16.992188 18.070312 -17.40625 15.71875 -17.40625 L 12.703125 -17.40625 Z M 12.703125 -7.421875 "/></g></g></g><g fill="#000000" fill-opacity="1"><g transform="translate(213.02572, 201.374987)"><g><path d="M 4.859375 -3.25 C 2.398438 -5.925781 1.171875 -9.207031 1.171875 -13.09375 C 1.171875 -16.988281 2.398438 -20.285156 4.859375 -22.984375 C 7.316406 -25.679688 10.441406 -27.03125 14.234375 -27.03125 C 17.710938 -27.03125 20.582031 -25.941406 22.84375 -23.765625 L 22.84375 -26.265625 L 31.90625 -26.265625 L 31.90625 0 L 22.9375 0 L 22.9375 -2.96875 L 22.84375 -2.96875 C 20.582031 -0.476562 17.710938 0.765625 14.234375 0.765625 C 10.441406 0.765625 7.316406 -0.570312 4.859375 -3.25 Z M 12.5625 -17.5625 C 11.382812 -16.40625 10.796875 -14.921875 10.796875 -13.109375 C 10.796875 -11.296875 11.359375 -9.816406 12.484375 -8.671875 C 13.617188 -7.535156 15.109375 -6.96875 16.953125 -6.96875 C 18.722656 -6.96875 20.179688 -7.546875 21.328125 -8.703125 C 22.472656 -9.867188 23.046875 -11.335938 23.046875 -13.109375 C 23.046875 -14.921875 22.457031 -16.40625 21.28125 -17.5625 C 20.101562 -18.71875 18.660156 -19.296875 16.953125 -19.296875 C 15.210938 -19.296875 13.75 -18.71875 12.5625 -17.5625 Z M 12.5625 -17.5625 "/></g></g></g><g fill="#000000" fill-opacity="1"><g transform="translate(243.180682, 201.374987)"><g><path d="M 1.890625 6.453125 L 9.3125 2.8125 C 10.675781 5.070312 13.050781 6.203125 16.4375 6.203125 C 18.007812 6.203125 19.46875 5.695312 20.8125 4.6875 C 22.164062 3.675781 22.84375 2.128906 22.84375 0.046875 L 22.84375 -1.890625 C 21.238281 -0.117188 18.367188 0.765625 14.234375 0.765625 C 10.441406 0.765625 7.316406 -0.570312 4.859375 -3.25 C 2.398438 -5.925781 1.171875 -9.207031 1.171875 -13.09375 C 1.171875 -16.988281 2.398438 -20.285156 4.859375 -22.984375 C 7.316406 -25.679688 10.441406 -27.03125 14.234375 -27.03125 C 17.609375 -27.03125 20.425781 -25.988281 22.6875 -23.90625 L 22.84375 -23.90625 L 22.84375 -26.265625 L 31.90625 -26.265625 L 31.90625 0.71875 C 31.90625 4.988281 30.488281 8.28125 27.65625 10.59375 C 24.820312 12.914062 21.082031 14.078125 16.4375 14.078125 C 8.925781 14.078125 4.078125 11.535156 1.890625 6.453125 Z M 12.5625 -17.5625 C 11.382812 -16.40625 10.796875 -14.921875 10.796875 -13.109375 C 10.796875 -11.296875 11.359375 -9.816406 12.484375 -8.671875 C 13.617188 -7.535156 15.109375 -6.96875 16.953125 -6.96875 C 18.722656 -6.96875 20.179688 -7.546875 21.328125 -8.703125 C 22.472656 -9.867188 23.046875 -11.335938 23.046875 -13.109375 C 23.046875 -14.921875 22.457031 -16.40625 21.28125 -17.5625 C 20.101562 -18.71875 18.660156 -19.296875 16.953125 -19.296875 C 15.210938 -19.296875 13.75 -18.71875 12.5625 -17.5625 Z M 12.5625 -17.5625 "/></g></g></g><g fill="#000000" fill-opacity="1"><g transform="translate(273.335645, 201.374987)"><g><path d="M 1.890625 6.453125 L 9.3125 2.8125 C 10.675781 5.070312 13.050781 6.203125 16.4375 6.203125 C 18.007812 6.203125 19.46875 5.695312 20.8125 4.6875 C 22.164062 3.675781 22.84375 2.128906 22.84375 0.046875 L 22.84375 -1.890625 C 21.238281 -0.117188 18.367188 0.765625 14.234375 0.765625 C 10.441406 0.765625 7.316406 -0.570312 4.859375 -3.25 C 2.398438 -5.925781 1.171875 -9.207031 1.171875 -13.09375 C 1.171875 -16.988281 2.398438 -20.285156 4.859375 -22.984375 C 7.316406 -25.679688 10.441406 -27.03125 14.234375 -27.03125 C 17.609375 -27.03125 20.425781 -25.988281 22.6875 -23.90625 L 22.84375 -23.90625 L 22.84375 -26.265625 L 31.90625 -26.265625 L 31.90625 0.71875 C 31.90625 4.988281 30.488281 8.28125 27.65625 10.59375 C 24.820312 12.914062 21.082031 14.078125 16.4375 14.078125 C 8.925781 14.078125 4.078125 11.535156 1.890625 6.453125 Z M 12.5625 -17.5625 C 11.382812 -16.40625 10.796875 -14.921875 10.796875 -13.109375 C 10.796875 -11.296875 11.359375 -9.816406 12.484375 -8.671875 C 13.617188 -7.535156 15.109375 -6.96875 16.953125 -6.96875 C 18.722656 -6.96875 20.179688 -7.546875 21.328125 -8.703125 C 22.472656 -9.867188 23.046875 -11.335938 23.046875 -13.109375 C 23.046875 -14.921875 22.457031 -16.40625 21.28125 -17.5625 C 20.101562 -18.71875 18.660156 -19.296875 16.953125 -19.296875 C 15.210938 -19.296875 13.75 -18.71875 12.5625 -17.5625 Z M 12.5625 -17.5625 "/></g></g></g><g fill="#000000" fill-opacity="1"><g transform="translate(303.490596, 201.374987)"><g><path d="M 8.90625 -10.953125 C 10.539062 -10.953125 11.929688 -10.378906 13.078125 -9.234375 C 14.222656 -8.097656 14.796875 -6.707031 14.796875 -5.0625 C 14.796875 -3.457031 14.222656 -2.082031 13.078125 -0.9375 C 11.929688 0.195312 10.539062 0.765625 8.90625 0.765625 C 7.300781 0.765625 5.925781 0.195312 4.78125 -0.9375 C 3.644531 -2.082031 3.078125 -3.457031 3.078125 -5.0625 C 3.078125 -6.707031 3.644531 -8.097656 4.78125 -9.234375 C 5.925781 -10.378906 7.300781 -10.953125 8.90625 -10.953125 Z M 8.90625 -10.953125 "/></g></g></g><g transform="matrix(1, 0, 0, 1, 158, 203)"><g clip-path="url(#a4a945dc49)"><g fill="#000000" fill-opacity="1"><g transform="translate(1.036893, 8.513833)"><g><path d="M 2.921875 -5.40625 C 3.398438 -5.40625 3.8125 -5.285156 4.15625 -5.046875 C 4.5 -4.804688 4.757812 -4.476562 4.9375 -4.0625 C 5.113281 -3.65625 5.203125 -3.203125 5.203125 -2.703125 C 5.203125 -2.203125 5.113281 -1.742188 4.9375 -1.328125 C 4.757812 -0.921875 4.5 -0.597656 4.15625 -0.359375 C 3.8125 -0.117188 3.398438 0 2.921875 0 L 1.015625 0 C 0.910156 0 0.820312 -0.0351562 0.75 -0.109375 C 0.675781 -0.179688 0.640625 -0.269531 0.640625 -0.375 L 0.640625 -5.046875 C 0.640625 -5.148438 0.675781 -5.234375 0.75 -5.296875 C 0.820312 -5.367188 0.910156 -5.40625 1.015625 -5.40625 Z M 2.84375 -0.71875 C 3.363281 -0.71875 3.753906 -0.898438 4.015625 -1.265625 C 4.285156 -1.640625 4.421875 -2.117188 4.421875 -2.703125 C 4.421875 -3.285156 4.285156 -3.765625 4.015625 -4.140625 C 3.753906 -4.515625 3.363281 -4.703125 2.84375 -4.703125 L 1.40625 -4.703125 L 1.40625 -0.71875 Z M 2.84375 -0.71875 "/></g></g></g><g fill="#000000" fill-opacity="1"><g transform="translate(7.66754, 8.513833)"><g><path d="M 1.25 -0.375 C 1.25 -0.269531 1.210938 -0.179688 1.140625 -0.109375 C 1.066406 -0.0351562 0.976562 0 0.875 0 C 0.769531 0 0.679688 -0.0351562 0.609375 -0.109375 C 0.546875 -0.179688 0.515625 -0.269531 0.515625 -0.375 L 0.515625 -3.71875 C 0.515625 -3.820312 0.546875 -3.910156 0.609375 -3.984375 C 0.679688 -4.054688 0.769531 -4.09375 0.875 -4.09375 C 0.976562 -4.09375 1.066406 -4.054688 1.140625 -3.984375 C 1.210938 -3.910156 1.25 -3.820312 1.25 -3.71875 Z M 0.875 -4.609375 C 0.71875 -4.609375 0.609375 -4.632812 0.546875 -4.6875 C 0.484375 -4.738281 0.453125 -4.820312 0.453125 -4.9375 L 0.453125 -5.0625 C 0.453125 -5.1875 0.484375 -5.273438 0.546875 -5.328125 C 0.617188 -5.378906 0.726562 -5.40625 0.875 -5.40625 C 1.019531 -5.40625 1.125 -5.378906 1.1875 -5.328125 C 1.25 -5.273438 1.28125 -5.1875 1.28125 -5.0625 L 1.28125 -4.9375 C 1.28125 -4.8125 1.242188 -4.722656 1.171875 -4.671875 C 1.109375 -4.628906 1.007812 -4.609375 0.875 -4.609375 Z M 0.875 -4.609375 "/></g></g></g><g clip-path="url(#bc0fd819e9)"><g fill="#000000" fill-opacity="1"><g transform="translate(10.507024, 8.513833)"><g><path d="M 3.9375 -4.109375 C 4.039062 -4.109375 4.128906 -4.070312 4.203125 -4 C 4.273438 -3.925781 4.3125 -3.835938 4.3125 -3.734375 L 4.3125 -0.328125 C 4.3125 0.0859375 4.222656 0.4375 4.046875 0.71875 C 3.867188 1 3.625 1.207031 3.3125 1.34375 C 3.007812 1.476562 2.671875 1.546875 2.296875 1.546875 C 2.085938 1.546875 1.84375 1.507812 1.5625 1.4375 C 1.289062 1.363281 1.113281 1.289062 1.03125 1.21875 C 0.875 1.132812 0.796875 1.03125 0.796875 0.90625 C 0.796875 0.875 0.804688 0.832031 0.828125 0.78125 C 0.878906 0.65625 0.972656 0.59375 1.109375 0.59375 C 1.179688 0.59375 1.253906 0.609375 1.328125 0.640625 C 1.742188 0.796875 2.066406 0.875 2.296875 0.875 C 2.710938 0.875 3.03125 0.773438 3.25 0.578125 C 3.46875 0.378906 3.578125 0.109375 3.578125 -0.234375 L 3.578125 -0.65625 C 3.460938 -0.457031 3.273438 -0.285156 3.015625 -0.140625 C 2.765625 0.00390625 2.5 0.078125 2.21875 0.078125 C 1.863281 0.078125 1.535156 -0.0078125 1.234375 -0.1875 C 0.941406 -0.375 0.710938 -0.628906 0.546875 -0.953125 C 0.378906 -1.273438 0.296875 -1.632812 0.296875 -2.03125 C 0.296875 -2.4375 0.378906 -2.800781 0.546875 -3.125 C 0.710938 -3.445312 0.941406 -3.695312 1.234375 -3.875 C 1.523438 -4.050781 1.847656 -4.140625 2.203125 -4.140625 C 2.484375 -4.140625 2.742188 -4.078125 2.984375 -3.953125 C 3.234375 -3.828125 3.429688 -3.671875 3.578125 -3.484375 L 3.578125 -3.734375 C 3.578125 -3.835938 3.609375 -3.925781 3.671875 -4 C 3.742188 -4.070312 3.832031 -4.109375 3.9375 -4.109375 Z M 2.3125 -0.609375 C 2.5625 -0.609375 2.78125 -0.664062 2.96875 -0.78125 C 3.164062 -0.90625 3.320312 -1.078125 3.4375 -1.296875 C 3.550781 -1.515625 3.609375 -1.757812 3.609375 -2.03125 C 3.609375 -2.300781 3.550781 -2.546875 3.4375 -2.765625 C 3.320312 -2.984375 3.164062 -3.15625 2.96875 -3.28125 C 2.78125 -3.40625 2.5625 -3.46875 2.3125 -3.46875 C 2.0625 -3.46875 1.835938 -3.40625 1.640625 -3.28125 C 1.441406 -3.15625 1.285156 -2.984375 1.171875 -2.765625 C 1.066406 -2.546875 1.015625 -2.300781 1.015625 -2.03125 C 1.015625 -1.757812 1.066406 -1.515625 1.171875 -1.296875 C 1.285156 -1.078125 1.441406 -0.90625 1.640625 -0.78125 C 1.835938 -0.664062 2.0625 -0.609375 2.3125 -0.609375 Z M 2.3125 -0.609375 "/></g></g></g></g><g fill="#000000" fill-opacity="1"><g transform="translate(16.44133, 8.513833)"><g><path d="M 1.25 -0.375 C 1.25 -0.269531 1.210938 -0.179688 1.140625 -0.109375 C 1.066406 -0.0351562 0.976562 0 0.875 0 C 0.769531 0 0.679688 -0.0351562 0.609375 -0.109375 C 0.546875 -0.179688 0.515625 -0.269531 0.515625 -0.375 L 0.515625 -3.71875 C 0.515625 -3.820312 0.546875 -3.910156 0.609375 -3.984375 C 0.679688 -4.054688 0.769531 -4.09375 0.875 -4.09375 C 0.976562 -4.09375 1.066406 -4.054688 1.140625 -3.984375 C 1.210938 -3.910156 1.25 -3.820312 1.25 -3.71875 Z M 0.875 -4.609375 C 0.71875 -4.609375 0.609375 -4.632812 0.546875 -4.6875 C 0.484375 -4.738281 0.453125 -4.820312 0.453125 -4.9375 L 0.453125 -5.0625 C 0.453125 -5.1875 0.484375 -5.273438 0.546875 -5.328125 C 0.617188 -5.378906 0.726562 -5.40625 0.875 -5.40625 C 1.019531 -5.40625 1.125 -5.378906 1.1875 -5.328125 C 1.25 -5.273438 1.28125 -5.1875 1.28125 -5.0625 L 1.28125 -4.9375 C 1.28125 -4.8125 1.242188 -4.722656 1.171875 -4.671875 C 1.109375 -4.628906 1.007812 -4.609375 0.875 -4.609375 Z M 0.875 -4.609375 "/></g></g></g><g fill="#000000" fill-opacity="1"><g transform="translate(19.280814, 8.513833)"><g><path d="M 1.640625 -3.328125 L 1.640625 -1.03125 C 1.640625 -0.769531 1.757812 -0.640625 2 -0.640625 C 2.03125 -0.640625 2.078125 -0.648438 2.140625 -0.671875 C 2.203125 -0.691406 2.253906 -0.703125 2.296875 -0.703125 C 2.359375 -0.703125 2.410156 -0.671875 2.453125 -0.609375 C 2.503906 -0.554688 2.53125 -0.484375 2.53125 -0.390625 C 2.53125 -0.285156 2.46875 -0.191406 2.34375 -0.109375 C 2.21875 -0.0351562 2.078125 0 1.921875 0 C 1.753906 0 1.597656 -0.015625 1.453125 -0.046875 C 1.316406 -0.0859375 1.191406 -0.179688 1.078125 -0.328125 C 0.960938 -0.472656 0.90625 -0.695312 0.90625 -1 L 0.90625 -3.328125 L 0.46875 -3.328125 C 0.363281 -3.328125 0.28125 -3.359375 0.21875 -3.421875 C 0.15625 -3.492188 0.125 -3.578125 0.125 -3.671875 C 0.125 -3.773438 0.15625 -3.851562 0.21875 -3.90625 C 0.28125 -3.96875 0.363281 -4 0.46875 -4 L 0.90625 -4 L 0.90625 -4.65625 C 0.90625 -4.757812 0.941406 -4.847656 1.015625 -4.921875 C 1.085938 -4.992188 1.175781 -5.03125 1.28125 -5.03125 C 1.382812 -5.03125 1.46875 -4.992188 1.53125 -4.921875 C 1.601562 -4.847656 1.640625 -4.757812 1.640625 -4.65625 L 1.640625 -4 L 2.296875 -4 C 2.390625 -4 2.46875 -3.96875 2.53125 -3.90625 C 2.59375 -3.84375 2.625 -3.765625 2.625 -3.671875 C 2.625 -3.566406 2.59375 -3.484375 2.53125 -3.421875 C 2.46875 -3.359375 2.390625 -3.328125 2.296875 -3.328125 Z M 1.640625 -3.328125 "/></g></g></g><g fill="#000000" fill-opacity="1"><g transform="translate(23.304068, 8.513833)"><g><path d="M 3.84375 -4.109375 C 3.945312 -4.109375 4.03125 -4.070312 4.09375 -4 C 4.164062 -3.925781 4.203125 -3.835938 4.203125 -3.734375 L 4.203125 -0.375 C 4.203125 -0.269531 4.164062 -0.179688 4.09375 -0.109375 C 4.03125 -0.0351562 3.945312 0 3.84375 0 C 3.726562 0 3.632812 -0.03125 3.5625 -0.09375 C 3.5 -0.164062 3.46875 -0.257812 3.46875 -0.375 L 3.46875 -0.578125 C 3.332031 -0.390625 3.148438 -0.234375 2.921875 -0.109375 C 2.691406 0.015625 2.441406 0.078125 2.171875 0.078125 C 1.816406 0.078125 1.492188 -0.0078125 1.203125 -0.1875 C 0.921875 -0.375 0.695312 -0.628906 0.53125 -0.953125 C 0.375 -1.273438 0.296875 -1.632812 0.296875 -2.03125 C 0.296875 -2.4375 0.375 -2.800781 0.53125 -3.125 C 0.695312 -3.445312 0.921875 -3.695312 1.203125 -3.875 C 1.492188 -4.050781 1.8125 -4.140625 2.15625 -4.140625 C 2.425781 -4.140625 2.675781 -4.082031 2.90625 -3.96875 C 3.144531 -3.863281 3.332031 -3.722656 3.46875 -3.546875 L 3.46875 -3.734375 C 3.46875 -3.835938 3.5 -3.925781 3.5625 -4 C 3.632812 -4.070312 3.726562 -4.109375 3.84375 -4.109375 Z M 2.265625 -0.609375 C 2.503906 -0.609375 2.71875 -0.664062 2.90625 -0.78125 C 3.09375 -0.90625 3.238281 -1.078125 3.34375 -1.296875 C 3.445312 -1.515625 3.5 -1.757812 3.5 -2.03125 C 3.5 -2.300781 3.445312 -2.546875 3.34375 -2.765625 C 3.238281 -2.984375 3.09375 -3.15625 2.90625 -3.28125 C 2.71875 -3.40625 2.503906 -3.46875 2.265625 -3.46875 C 2.015625 -3.46875 1.796875 -3.40625 1.609375 -3.28125 C 1.421875 -3.15625 1.273438 -2.984375 1.171875 -2.765625 C 1.066406 -2.546875 1.015625 -2.300781 1.015625 -2.03125 C 1.015625 -1.757812 1.066406 -1.515625 1.171875 -1.296875 C 1.273438 -1.078125 1.421875 -0.90625 1.609375 -0.78125 C 1.796875 -0.664062 2.015625 -0.609375 2.265625 -0.609375 Z M 2.265625 -0.609375 "/></g></g></g><g fill="#000000" fill-opacity="1"><g transform="translate(29.137798, 8.513833)"><g><path d="M 1.34375 -0.375 C 1.34375 -0.269531 1.304688 -0.179688 1.234375 -0.109375 C 1.160156 -0.0351562 1.070312 0 0.96875 0 C 0.863281 0 0.773438 -0.0351562 0.703125 -0.109375 C 0.640625 -0.179688 0.609375 -0.269531 0.609375 -0.375 L 0.609375 -5.359375 C 0.609375 -5.453125 0.644531 -5.535156 0.71875 -5.609375 C 0.789062 -5.679688 0.878906 -5.71875 0.984375 -5.71875 C 1.085938 -5.71875 1.171875 -5.679688 1.234375 -5.609375 C 1.304688 -5.535156 1.34375 -5.453125 1.34375 -5.359375 Z M 1.34375 -0.375 "/></g></g></g><g fill="#000000" fill-opacity="1"><g transform="translate(32.178452, 8.513833)"><g/></g></g><g fill="#000000" fill-opacity="1"><g transform="translate(35.40479, 8.513833)"><g><path d="M 4.5 -5.09375 C 4.625 -5.03125 4.6875 -4.925781 4.6875 -4.78125 C 4.6875 -4.6875 4.65625 -4.601562 4.59375 -4.53125 C 4.53125 -4.445312 4.445312 -4.40625 4.34375 -4.40625 C 4.269531 -4.40625 4.195312 -4.425781 4.125 -4.46875 C 3.8125 -4.644531 3.46875 -4.734375 3.09375 -4.734375 C 2.707031 -4.734375 2.363281 -4.644531 2.0625 -4.46875 C 1.769531 -4.300781 1.539062 -4.0625 1.375 -3.75 C 1.207031 -3.445312 1.125 -3.097656 1.125 -2.703125 C 1.125 -2.273438 1.207031 -1.90625 1.375 -1.59375 C 1.550781 -1.289062 1.785156 -1.054688 2.078125 -0.890625 C 2.378906 -0.734375 2.71875 -0.65625 3.09375 -0.65625 C 3.476562 -0.65625 3.820312 -0.742188 4.125 -0.921875 C 4.1875 -0.953125 4.253906 -0.96875 4.328125 -0.96875 C 4.441406 -0.96875 4.535156 -0.925781 4.609375 -0.84375 C 4.660156 -0.769531 4.6875 -0.6875 4.6875 -0.59375 C 4.6875 -0.53125 4.671875 -0.472656 4.640625 -0.421875 C 4.609375 -0.367188 4.566406 -0.328125 4.515625 -0.296875 C 4.304688 -0.179688 4.078125 -0.0859375 3.828125 -0.015625 C 3.578125 0.046875 3.332031 0.078125 3.09375 0.078125 C 2.59375 0.078125 2.128906 -0.03125 1.703125 -0.25 C 1.285156 -0.476562 0.953125 -0.800781 0.703125 -1.21875 C 0.453125 -1.644531 0.328125 -2.140625 0.328125 -2.703125 C 0.328125 -3.222656 0.445312 -3.691406 0.6875 -4.109375 C 0.925781 -4.535156 1.253906 -4.867188 1.671875 -5.109375 C 2.097656 -5.347656 2.570312 -5.46875 3.09375 -5.46875 C 3.59375 -5.46875 4.0625 -5.34375 4.5 -5.09375 Z M 4.5 -5.09375 "/></g></g></g><g fill="#000000" fill-opacity="1"><g transform="translate(41.424205, 8.513833)"><g><path d="M 4.390625 -2.03125 C 4.390625 -1.625 4.296875 -1.257812 4.109375 -0.9375 C 3.929688 -0.625 3.6875 -0.375 3.375 -0.1875 C 3.0625 -0.0078125 2.71875 0.078125 2.34375 0.078125 C 1.96875 0.078125 1.625 -0.0078125 1.3125 -0.1875 C 1 -0.375 0.75 -0.625 0.5625 -0.9375 C 0.382812 -1.257812 0.296875 -1.625 0.296875 -2.03125 C 0.296875 -2.425781 0.382812 -2.785156 0.5625 -3.109375 C 0.75 -3.441406 1 -3.695312 1.3125 -3.875 C 1.625 -4.050781 1.96875 -4.140625 2.34375 -4.140625 C 2.71875 -4.140625 3.0625 -4.050781 3.375 -3.875 C 3.6875 -3.695312 3.929688 -3.441406 4.109375 -3.109375 C 4.296875 -2.785156 4.390625 -2.425781 4.390625 -2.03125 Z M 3.65625 -2.03125 C 3.65625 -2.300781 3.59375 -2.546875 3.46875 -2.765625 C 3.351562 -2.984375 3.195312 -3.15625 3 -3.28125 C 2.800781 -3.40625 2.582031 -3.46875 2.34375 -3.46875 C 2.101562 -3.46875 1.882812 -3.40625 1.6875 -3.28125 C 1.488281 -3.15625 1.328125 -2.984375 1.203125 -2.765625 C 1.085938 -2.546875 1.03125 -2.300781 1.03125 -2.03125 C 1.03125 -1.75 1.085938 -1.5 1.203125 -1.28125 C 1.328125 -1.070312 1.488281 -0.90625 1.6875 -0.78125 C 1.882812 -0.664062 2.101562 -0.609375 2.34375 -0.609375 C 2.582031 -0.609375 2.800781 -0.664062 3 -0.78125 C 3.195312 -0.90625 3.351562 -1.070312 3.46875 -1.28125 C 3.59375 -1.5 3.65625 -1.75 3.65625 -2.03125 Z M 3.65625 -2.03125 "/></g></g></g><g fill="#000000" fill-opacity="1"><g transform="translate(47.196034, 8.513833)"><g><path d="M 5.203125 -4.125 C 6.097656 -4.125 6.546875 -3.5625 6.546875 -2.4375 L 6.546875 -0.375 C 6.546875 -0.257812 6.507812 -0.164062 6.4375 -0.09375 C 6.375 -0.03125 6.289062 0 6.1875 0 C 6.082031 0 5.992188 -0.0351562 5.921875 -0.109375 C 5.847656 -0.179688 5.8125 -0.269531 5.8125 -0.375 L 5.8125 -2.421875 C 5.8125 -3.097656 5.53125 -3.4375 4.96875 -3.4375 C 4.757812 -3.4375 4.570312 -3.390625 4.40625 -3.296875 C 4.25 -3.210938 4.125 -3.09375 4.03125 -2.9375 C 3.945312 -2.78125 3.90625 -2.609375 3.90625 -2.421875 L 3.90625 -0.375 C 3.90625 -0.269531 3.867188 -0.179688 3.796875 -0.109375 C 3.734375 -0.0351562 3.644531 0 3.53125 0 C 3.425781 0 3.335938 -0.03125 3.265625 -0.09375 C 3.203125 -0.164062 3.171875 -0.257812 3.171875 -0.375 L 3.171875 -2.4375 C 3.171875 -2.738281 3.101562 -2.976562 2.96875 -3.15625 C 2.84375 -3.34375 2.628906 -3.4375 2.328125 -3.4375 C 2.023438 -3.4375 1.773438 -3.335938 1.578125 -3.140625 C 1.378906 -2.953125 1.28125 -2.71875 1.28125 -2.4375 L 1.28125 -0.375 C 1.28125 -0.269531 1.242188 -0.179688 1.171875 -0.109375 C 1.109375 -0.0351562 1.019531 0 0.90625 0 C 0.800781 0 0.710938 -0.03125 0.640625 -0.09375 C 0.578125 -0.164062 0.546875 -0.257812 0.546875 -0.375 L 0.546875 -3.6875 C 0.546875 -3.789062 0.582031 -3.875 0.65625 -3.9375 C 0.726562 -4.007812 0.8125 -4.046875 0.90625 -4.046875 C 1.019531 -4.046875 1.109375 -4.007812 1.171875 -3.9375 C 1.242188 -3.875 1.28125 -3.789062 1.28125 -3.6875 L 1.28125 -3.40625 C 1.414062 -3.613281 1.59375 -3.785156 1.8125 -3.921875 C 2.039062 -4.054688 2.285156 -4.125 2.546875 -4.125 C 3.191406 -4.125 3.609375 -3.835938 3.796875 -3.265625 C 3.910156 -3.484375 4.097656 -3.679688 4.359375 -3.859375 C 4.617188 -4.035156 4.898438 -4.125 5.203125 -4.125 Z M 5.203125 -4.125 "/></g></g></g><g clip-path="url(#27b407eaa0)"><g fill="#000000" fill-opacity="1"><g transform="translate(55.38183, 8.513833)"><g><path d="M 2.578125 -4.125 C 2.929688 -4.125 3.25 -4.035156 3.53125 -3.859375 C 3.8125 -3.679688 4.035156 -3.429688 4.203125 -3.109375 C 4.367188 -2.785156 4.453125 -2.425781 4.453125 -2.03125 C 4.453125 -1.625 4.367188 -1.257812 4.203125 -0.9375 C 4.035156 -0.625 3.8125 -0.378906 3.53125 -0.203125 C 3.25 -0.0234375 2.9375 0.0625 2.59375 0.0625 C 2.332031 0.0625 2.082031 0.00390625 1.84375 -0.109375 C 1.613281 -0.222656 1.425781 -0.367188 1.28125 -0.546875 L 1.28125 1.171875 C 1.28125 1.273438 1.242188 1.363281 1.171875 1.4375 C 1.109375 1.507812 1.019531 1.546875 0.90625 1.546875 C 0.8125 1.546875 0.726562 1.507812 0.65625 1.4375 C 0.582031 1.375 0.546875 1.285156 0.546875 1.171875 L 0.546875 -3.6875 C 0.546875 -3.800781 0.578125 -3.890625 0.640625 -3.953125 C 0.710938 -4.023438 0.800781 -4.0625 0.90625 -4.0625 C 1.019531 -4.0625 1.109375 -4.023438 1.171875 -3.953125 C 1.242188 -3.890625 1.28125 -3.800781 1.28125 -3.6875 L 1.28125 -3.46875 C 1.40625 -3.644531 1.585938 -3.796875 1.828125 -3.921875 C 2.066406 -4.054688 2.316406 -4.125 2.578125 -4.125 Z M 2.5 -0.609375 C 2.738281 -0.609375 2.953125 -0.671875 3.140625 -0.796875 C 3.328125 -0.921875 3.472656 -1.085938 3.578125 -1.296875 C 3.691406 -1.515625 3.75 -1.757812 3.75 -2.03125 C 3.75 -2.289062 3.691406 -2.53125 3.578125 -2.75 C 3.472656 -2.96875 3.328125 -3.132812 3.140625 -3.25 C 2.953125 -3.375 2.738281 -3.4375 2.5 -3.4375 C 2.257812 -3.4375 2.039062 -3.375 1.84375 -3.25 C 1.65625 -3.132812 1.507812 -2.96875 1.40625 -2.75 C 1.300781 -2.53125 1.25 -2.289062 1.25 -2.03125 C 1.25 -1.757812 1.300781 -1.515625 1.40625 -1.296875 C 1.507812 -1.078125 1.65625 -0.90625 1.84375 -0.78125 C 2.039062 -0.664062 2.257812 -0.609375 2.5 -0.609375 Z M 2.5 -0.609375 "/></g></g></g></g><g fill="#000000" fill-opacity="1"><g transform="translate(61.21556, 8.513833)"><g><path d="M 3.84375 -4.109375 C 3.945312 -4.109375 4.03125 -4.070312 4.09375 -4 C 4.164062 -3.925781 4.203125 -3.835938 4.203125 -3.734375 L 4.203125 -0.375 C 4.203125 -0.269531 4.164062 -0.179688 4.09375 -0.109375 C 4.03125 -0.0351562 3.945312 0 3.84375 0 C 3.726562 0 3.632812 -0.03125 3.5625 -0.09375 C 3.5 -0.164062 3.46875 -0.257812 3.46875 -0.375 L 3.46875 -0.578125 C 3.332031 -0.390625 3.148438 -0.234375 2.921875 -0.109375 C 2.691406 0.015625 2.441406 0.078125 2.171875 0.078125 C 1.816406 0.078125 1.492188 -0.0078125 1.203125 -0.1875 C 0.921875 -0.375 0.695312 -0.628906 0.53125 -0.953125 C 0.375 -1.273438 0.296875 -1.632812 0.296875 -2.03125 C 0.296875 -2.4375 0.375 -2.800781 0.53125 -3.125 C 0.695312 -3.445312 0.921875 -3.695312 1.203125 -3.875 C 1.492188 -4.050781 1.8125 -4.140625 2.15625 -4.140625 C 2.425781 -4.140625 2.675781 -4.082031 2.90625 -3.96875 C 3.144531 -3.863281 3.332031 -3.722656 3.46875 -3.546875 L 3.46875 -3.734375 C 3.46875 -3.835938 3.5 -3.925781 3.5625 -4 C 3.632812 -4.070312 3.726562 -4.109375 3.84375 -4.109375 Z M 2.265625 -0.609375 C 2.503906 -0.609375 2.71875 -0.664062 2.90625 -0.78125 C 3.09375 -0.90625 3.238281 -1.078125 3.34375 -1.296875 C 3.445312 -1.515625 3.5 -1.757812 3.5 -2.03125 C 3.5 -2.300781 3.445312 -2.546875 3.34375 -2.765625 C 3.238281 -2.984375 3.09375 -3.15625 2.90625 -3.28125 C 2.71875 -3.40625 2.503906 -3.46875 2.265625 -3.46875 C 2.015625 -3.46875 1.796875 -3.40625 1.609375 -3.28125 C 1.421875 -3.15625 1.273438 -2.984375 1.171875 -2.765625 C 1.066406 -2.546875 1.015625 -2.300781 1.015625 -2.03125 C 1.015625 -1.757812 1.066406 -1.515625 1.171875 -1.296875 C 1.273438 -1.078125 1.421875 -0.90625 1.609375 -0.78125 C 1.796875 -0.664062 2.015625 -0.609375 2.265625 -0.609375 Z M 2.265625 -0.609375 "/></g></g></g><g fill="#000000" fill-opacity="1"><g transform="translate(67.049291, 8.513833)"><g><path d="M 2.609375 -4.140625 C 3.535156 -4.140625 4 -3.582031 4 -2.46875 L 4 -0.375 C 4 -0.269531 3.960938 -0.179688 3.890625 -0.109375 C 3.828125 -0.0351562 3.742188 0 3.640625 0 C 3.535156 0 3.445312 -0.0351562 3.375 -0.109375 C 3.300781 -0.179688 3.265625 -0.269531 3.265625 -0.375 L 3.265625 -2.46875 C 3.265625 -2.769531 3.195312 -3.007812 3.0625 -3.1875 C 2.925781 -3.375 2.695312 -3.46875 2.375 -3.46875 C 2.175781 -3.46875 1.988281 -3.421875 1.8125 -3.328125 C 1.644531 -3.234375 1.515625 -3.109375 1.421875 -2.953125 C 1.328125 -2.804688 1.28125 -2.644531 1.28125 -2.46875 L 1.28125 -0.375 C 1.28125 -0.269531 1.242188 -0.179688 1.171875 -0.109375 C 1.109375 -0.0351562 1.019531 0 0.90625 0 C 0.800781 0 0.710938 -0.03125 0.640625 -0.09375 C 0.578125 -0.164062 0.546875 -0.257812 0.546875 -0.375 L 0.546875 -3.6875 C 0.546875 -3.789062 0.582031 -3.875 0.65625 -3.9375 C 0.726562 -4.007812 0.8125 -4.046875 0.90625 -4.046875 C 1.019531 -4.046875 1.109375 -4.007812 1.171875 -3.9375 C 1.242188 -3.875 1.28125 -3.789062 1.28125 -3.6875 L 1.28125 -3.40625 C 1.414062 -3.613281 1.601562 -3.785156 1.84375 -3.921875 C 2.082031 -4.066406 2.335938 -4.140625 2.609375 -4.140625 Z M 2.609375 -4.140625 "/></g></g></g><g clip-path="url(#ad883190da)"><g fill="#000000" fill-opacity="1"><g transform="translate(72.689595, 8.513833)"><g><path d="M 3.5625 -4.09375 C 3.675781 -4.09375 3.765625 -4.054688 3.828125 -3.984375 C 3.898438 -3.910156 3.9375 -3.820312 3.9375 -3.71875 L 3.9375 -0.375 C 3.9375 0.269531 3.757812 0.75 3.40625 1.0625 C 3.050781 1.382812 2.582031 1.546875 2 1.546875 C 1.800781 1.546875 1.609375 1.523438 1.421875 1.484375 C 1.242188 1.453125 1.09375 1.40625 0.96875 1.34375 C 0.78125 1.257812 0.6875 1.140625 0.6875 0.984375 C 0.6875 0.960938 0.691406 0.929688 0.703125 0.890625 C 0.734375 0.804688 0.773438 0.738281 0.828125 0.6875 C 0.890625 0.644531 0.957031 0.625 1.03125 0.625 C 1.070312 0.625 1.109375 0.628906 1.140625 0.640625 C 1.304688 0.710938 1.445312 0.769531 1.5625 0.8125 C 1.6875 0.851562 1.832031 0.875 2 0.875 C 2.800781 0.875 3.203125 0.460938 3.203125 -0.359375 L 3.203125 -0.515625 C 3.066406 -0.328125 2.882812 -0.179688 2.65625 -0.078125 C 2.4375 0.0234375 2.1875 0.078125 1.90625 0.078125 C 1.476562 0.078125 1.144531 -0.0546875 0.90625 -0.328125 C 0.664062 -0.609375 0.546875 -0.96875 0.546875 -1.40625 L 0.546875 -3.71875 C 0.546875 -3.820312 0.578125 -3.910156 0.640625 -3.984375 C 0.710938 -4.054688 0.800781 -4.09375 0.90625 -4.09375 C 1.019531 -4.09375 1.109375 -4.054688 1.171875 -3.984375 C 1.242188 -3.910156 1.28125 -3.820312 1.28125 -3.71875 L 1.28125 -1.59375 C 1.28125 -1.257812 1.351562 -1.007812 1.5 -0.84375 C 1.65625 -0.6875 1.882812 -0.609375 2.1875 -0.609375 C 2.476562 -0.609375 2.71875 -0.695312 2.90625 -0.875 C 3.101562 -1.0625 3.203125 -1.300781 3.203125 -1.59375 L 3.203125 -3.71875 C 3.203125 -3.820312 3.234375 -3.910156 3.296875 -3.984375 C 3.367188 -4.054688 3.457031 -4.09375 3.5625 -4.09375 Z M 3.5625 -4.09375 "/></g></g></g></g></g></g></svg>