<?xml version="1.0" encoding="utf-8"?>
<!-- Generator: Adobe Illustrator 24.3.0, SVG Export Plug-In . SVG Version: 6.00 Build 0)  -->
<svg version="1.1" id="Layer_1" xmlns="http://www.w3.org/2000/svg" xmlns:xlink="http://www.w3.org/1999/xlink" x="0px" y="0px"
	 viewBox="0 0 850.4 850.4" style="enable-background:new 0 0 850.4 850.4;" xml:space="preserve">
<style type="text/css">
	.st0{fill:#58ABBC;}
	.st1{fill:#FCB149;}
	.st2{fill:#F15B3D;}
	.st3{fill:#454546;}
	.st4{fill:#FFFFFF;}
</style>
<g>
	<path class="st0" d="M277.6,440.4v50.8c0,10-8.1,18.1-18.1,18.1h-27.2v-68.8H277.6z"/>
	<path class="st1" d="M152.4,341.1v65.2h-49.7v-47.2c0-10,8.1-18.1,18.1-18.1H152.4z"/>
	<path class="st2" d="M277.6,358.6v81.8h-45.3v-0.3h0.4v-69.3h-2.1c-1.4,16.2-4.6,26.3-9.5,30.3c-3,2.5-10.8,3.7-23.2,3.7v-41.2
		c0-3.9,0.4-6.3,1.2-7.1l1.6-0.7c3.1-0.9,6.3-1.5,9.4-1.8c3.1-0.2,8.4-0.4,16-0.4c1.9,0,3.7,0.1,5.4,0.5c8.5,1.5,15.3,6.8,20.4,15.9
		c4.6,8.2,6.8,16.9,6.8,26h2.3v-44H152.4v-10.9h107.8C269.8,341.1,277.6,349,277.6,358.6z"/>
	<path class="st2" d="M176.3,363.5v42.8h-23.9v-52.7c4.7,0,9,0.2,12.9,0.7c3.9,0.5,6.6,0.9,7.9,1.4c1.3,0.5,2.1,0.9,2.4,1.4
		C176.1,358,176.3,360.1,176.3,363.5z"/>
	<path class="st3" d="M232.3,440.2v69.1H120.8c-10,0-18.1-8.1-18.1-18.1v-84.8h73.6v47.5c0,3.3-0.2,5.3-0.6,6.1
		c-0.4,0.8-1.3,1.4-2.6,1.9c-1.3,0.5-3.9,1-7.6,1.3c-3.7,0.4-8.1,0.5-13.1,0.5v1.7h73.3v-1.7c-6.9,0-12.4-0.2-16.4-0.5
		c-4-0.3-6.8-0.8-8.2-1.3c-1.4-0.5-2.2-1-2.5-1.5c-0.5-0.9-0.7-3.1-0.7-6.5v-47.3c13.1,0,21.3,1.3,24.7,3.9
		c4.6,3.4,7.3,11.2,7.9,23.4c0.1,2,0.2,4.1,0.2,6.3H232.3z"/>
	<g>
		<path class="st4" d="M261.1,352.1v44h-2.3c0-9.1-2.3-17.7-6.8-26c-5-9.1-11.8-14.4-20.4-15.9c-1.7-0.3-3.5-0.5-5.4-0.5
			c-7.6,0-12.9,0.1-16,0.4c-3.1,0.2-6.2,0.8-9.4,1.8l-1.6,0.7c-0.8,0.8-1.2,3.2-1.2,7.1v41.2c12.5,0,20.2-1.2,23.2-3.7
			c4.9-4,8.1-14.1,9.5-30.3h2.1v69.3h-2.1c0-2.2-0.1-4.3-0.2-6.3c-0.6-12.2-3.3-20-7.9-23.4c-3.4-2.6-11.6-3.9-24.7-3.9v47.3
			c0,3.4,0.2,5.6,0.7,6.5c0.2,0.5,1,1,2.5,1.5c1.4,0.5,4.1,1,8.2,1.3c4,0.4,9.5,0.5,16.4,0.5v1.7h-73.3v-1.7c5,0,9.4-0.2,13.1-0.5
			c3.7-0.3,6.2-0.8,7.6-1.3c1.4-0.5,2.2-1.2,2.6-1.9c0.4-0.8,0.6-2.8,0.6-6.1v-90.3c0-3.4-0.2-5.5-0.7-6.4c-0.2-0.5-1-0.9-2.4-1.4
			c-1.3-0.5-4-0.9-7.9-1.4c-3.9-0.5-8.2-0.7-12.9-0.7v-1.6H261.1z"/>
	</g>
	<g>
		<g>
			<path class="st3" d="M309.6,433.2v-55.9c0-2.1-0.1-3.4-0.4-3.9c-0.1-0.3-0.6-0.6-1.5-0.9c-0.8-0.3-2.5-0.6-4.9-0.9
				c-2.4-0.3-5.1-0.4-8-0.4v-1h67.3v27.2h-1.4c0-5.6-1.4-11-4.2-16.1c-3.8-6.8-9.1-10.2-16-10.2c-4.7,0-8,0.1-9.9,0.2
				c-1.9,0.1-3.9,0.5-5.8,1.1l-1,0.4c-0.5,0.5-0.8,2-0.8,4.4v25.6c7.7,0,12.5-0.8,14.4-2.3c3-2.5,5-8.7,5.9-18.7h1.3v42.9h-1.3
				c0-9.8-1.7-15.9-5-18.4c-2.1-1.6-7.2-2.4-15.3-2.4v29.3c0,2.1,0.1,3.5,0.4,4c0.1,0.3,0.7,0.6,1.5,0.9c0.9,0.3,2.6,0.6,5.1,0.8
				c2.5,0.2,5.9,0.3,10.2,0.3v1.1h-45.4v-1.1c3.1,0,5.8-0.1,8.1-0.3c2.3-0.2,3.8-0.5,4.7-0.8c0.8-0.3,1.4-0.7,1.6-1.2
				C309.5,436.5,309.6,435.2,309.6,433.2z"/>
			<path class="st3" d="M383.7,435.2c0,1.5,0.1,2.4,0.3,2.8c0.1,0.2,0.5,0.4,1,0.7c1.5,0.5,4.7,0.8,9.5,0.8v1h-31.8v-1
				c2.1,0,4-0.1,5.7-0.2c1.7-0.1,3.2-0.4,4.4-0.9c0.4-0.4,0.7-1.4,0.7-3.2v-58.4c0-1.5-0.2-2.5-0.7-3.1c-0.4-0.6-0.9-0.9-1.3-1.1
				c-1.3-0.4-4.2-0.5-8.7-0.5v-1l20.9-1.9V435.2z"/>
			<path class="st3" d="M408.8,418c0,7.8,0.9,13.5,2.8,17c1.9,3.5,4.7,5.3,8.4,5.3c4,0,7.5-1.4,10.6-4.1c3.7-3.3,5.6-7.7,5.6-13.4
				h0.9c0,5.4-1.7,9.9-5.2,13.4s-8.1,5.2-13.9,5.2c-4.9,0-9.3-1.9-13.3-5.6c-4.7-4.4-7.1-10.1-7.1-17.1c0-7.6,2.3-13.8,7-18.6
				c4.1-4.1,8.6-6.2,13.7-6.2c4.7,0,8.6,1.4,11.8,4.1c4.6,4.1,6.9,10.7,6.9,19.9H408.8z M427.6,416.7c0-7-0.6-12.4-1.9-16.1
				c-1.3-3.7-3.3-5.6-6.1-5.6c-3.9,0-6.7,1.8-8.3,5.3c-1.6,3.5-2.4,9-2.4,16.4H427.6z"/>
			<path class="st3" d="M461,419.8L448.3,399c-1-1.7-2.1-2.8-3.2-3.3c-1.1-0.5-3.3-0.8-6.8-0.8v-1.1h28.1v1.1c-1.6,0-3.3,0-5.1,0.1
				c-1.8,0.1-2.7,0.5-2.7,1.4c0,0.5,0.4,1.4,1.1,2.5l7.4,12.1l5.5-7.7c1.3-2.1,2-3.8,2-5c0-2.3-2-3.4-6-3.4v-1.1H488v1.1
				c-4.6,0-8.3,1.6-11.2,4.9c-0.7,0.8-2.2,2.8-4.4,5.9l-4.5,6.4l14.3,23.2c1.2,1.8,2,2.9,2.5,3.2c1,0.6,3.2,0.9,6.6,0.9v1h-28.1v-1
				c5.6,0,8.4-0.6,8.4-1.8c0-0.7-0.3-1.4-0.9-2.3l-9.1-14.5l-7.1,9.8c-1.2,1.8-1.9,3.3-1.9,4.5c0,2.9,2.9,4.3,8.6,4.3v1h-23v-1
				c2.6,0,5.4-0.9,8.2-2.7c2.9-1.8,5.5-4.3,7.8-7.6L461,419.8z"/>
			<path class="st3" d="M513.2,393.9v41.3c0,1.5,0.1,2.4,0.3,2.8c0.1,0.2,0.5,0.4,1,0.7c1.5,0.5,4.7,0.8,9.5,0.8v1h-31.8v-1
				c2.1,0,4-0.1,5.7-0.2c1.7-0.1,3.2-0.4,4.4-0.9c0.4-0.4,0.7-1.4,0.7-3.2v-34c0-1.4-0.1-2.3-0.4-2.6c-0.5-0.7-1-1.2-1.4-1.3
				c-1.3-0.4-4.3-0.5-8.9-0.5v-1L513.2,393.9z M507.5,369.3c1.7,0,3.2,0.6,4.3,1.7c1.2,1.2,1.7,2.6,1.7,4.4c0,1.7-0.6,3.2-1.7,4.4
				c-1.2,1.2-2.6,1.7-4.3,1.7s-3.2-0.6-4.3-1.7c-1.2-1.2-1.7-2.6-1.7-4.4c0-1.7,0.6-3.2,1.7-4.4
				C504.3,369.9,505.7,369.3,507.5,369.3z"/>
			<path class="st3" d="M556.5,408.6v24.6c0,2.1,0.1,3.5,0.4,4c0.1,0.3,0.7,0.6,1.5,0.9c0.9,0.3,2.6,0.6,5.1,0.8
				c2.5,0.2,6,0.3,10.5,0.3v1.1H527v-1.1c3.7,0,6.8-0.1,9.2-0.3c2.4-0.2,4.1-0.5,5-0.8c0.9-0.3,1.4-0.6,1.5-0.9
				c0.3-0.6,0.4-1.9,0.4-4V377c0-2-0.1-3.2-0.4-3.8c-0.1-0.3-0.6-0.6-1.3-0.9c-2.3-0.8-7-1.2-14.4-1.2v-1h42.3c8.6,0,15.5,2,20.5,6
				c4.7,3.8,7.1,8.7,7.1,14.8c0,4.1-1.8,7.9-5.4,11.3c-4.5,4.2-10.6,6.3-18.3,6.3H556.5z M556.5,407.6h11c6.1,0,10.3-1.6,12.7-4.7
				c2-2.7,3.1-7,3.1-12.9c0-6.2-1.4-10.9-4-14.1c-2.7-3.2-6.9-4.8-12.5-4.8h-5.2c-1.5,0-2.7,0.1-3.4,0.3c-0.7,0.2-1.2,0.7-1.4,1.4
				c-0.2,0.7-0.3,2.1-0.3,4.2V407.6z"/>
			<path class="st3" d="M609.2,418c0,7.8,0.9,13.5,2.8,17c1.9,3.5,4.7,5.3,8.4,5.3c4,0,7.5-1.4,10.6-4.1c3.7-3.3,5.6-7.7,5.6-13.4
				h0.9c0,5.4-1.7,9.9-5.2,13.4c-3.5,3.5-8.1,5.2-13.9,5.2c-4.9,0-9.3-1.9-13.3-5.6c-4.7-4.4-7.1-10.1-7.1-17.1
				c0-7.6,2.3-13.8,7-18.6c4.1-4.1,8.6-6.2,13.7-6.2c4.7,0,8.6,1.4,11.8,4.1c4.6,4.1,6.9,10.7,6.9,19.9H609.2z M628,416.7
				c0-7-0.6-12.4-1.9-16.1c-1.3-3.7-3.3-5.6-6.1-5.6c-3.9,0-6.7,1.8-8.3,5.3s-2.4,9-2.4,16.4H628z"/>
			<path class="st3" d="M669.2,408.8v-6.3c0-2.9-0.5-4.9-1.4-5.9c-0.9-1-2.9-1.5-6-1.5c-2.5,0-4.7,0.5-6.6,1.4
				c-1.9,1-3.1,2.3-3.7,3.9c0.3-0.1,0.7-0.1,1.1-0.1c1.4,0,2.5,0.5,3.4,1.6c0.9,1.1,1.3,2.3,1.3,3.7c0,1.6-0.5,2.9-1.6,3.9
				c-1.1,1-2.4,1.5-3.8,1.5c-1,0-1.8-0.3-2.5-0.8c-2.1-1.4-3.2-3.1-3.2-5.2c0-1,0.2-2.2,0.7-3.5c1-2.8,3.6-4.9,7.6-6.2
				c2.9-0.9,5.8-1.4,8.8-1.4c5.4,0,9.4,1,12.2,3c2.5,1.8,3.7,4.1,3.7,6.8v24c0,4.3,0.1,7,0.3,8c0.5,2.5,1.8,3.7,3.9,3.7
				c1.9,0,3.2-1,3.8-2.9c0.7-1.9,1-4.8,1-8.4c0-1,0-2-0.1-3c0-1-0.1-2.1-0.1-3.1v-1h1.3v4.8c0,1.5,0,3,0.1,4.4c0,4.2-0.5,7-1.5,8.5
				c-1.3,1.8-4,2.7-8,2.7c-3.1,0-5.5-0.5-7-1.6c-1.8-1.3-3-3.5-3.6-6.6c-1.5,3.5-3.8,5.9-6.9,7.1c-1.8,0.7-4.2,1.1-7.3,1.1
				c-3.1,0-5.7-0.7-8-2.2c-3.1-2-4.7-4.9-4.7-8.9c0-3.9,1.5-7.2,4.6-9.9c3-2.6,6.7-4.1,11.1-4.5c4.3-0.4,7.3-0.9,8.8-1.7
				C668.5,413.3,669.2,411.6,669.2,408.8z M668.9,428.5v-14.6c-0.9,1.2-2.2,1.9-3.9,2.1c-1.7,0.3-3.4,0.5-5,0.7
				c-2.1,0.5-3.8,1.7-5,3.5c-1.5,2.2-2.2,5.3-2.2,9.2c0,4.2,0.4,7.1,1.3,8.6c0.8,1.5,2.2,2.2,4,2.2c2.8,0,5.2-1.1,7.5-3.4
				C667.8,434.6,668.9,431.8,668.9,428.5z"/>
			<path class="st3" d="M711.7,420.8v14.4c0,1.5,0.1,2.4,0.3,2.9c0.1,0.2,0.5,0.4,1,0.7c0.5,0.2,1.5,0.4,2.9,0.5
				c1.4,0.1,2.5,0.2,3.4,0.2v1h-28.1v-1c4.4,0,7.3-0.3,8.8-0.8l0.8-0.3c0.4-0.4,0.7-1.4,0.7-3.2v-58.4c0-1.5-0.2-2.5-0.7-3.1
				c-0.4-0.6-0.8-1-1.2-1c-1.2-0.4-3.9-0.5-8.3-0.5v-1l20.4-1.9v49.6l13.7-13.7c2.2-2.1,3.3-4,3.3-5.7c0-1.4-0.8-2.5-2.3-3.2
				s-3.8-1.2-7-1.2v-1.1h24.9v1.1c-2.8,0-4.9,0.4-6.5,1.2s-3.7,2.4-6.4,4.9l-6.8,6.7l13.9,27.8c0.8,1.6,1.8,2.6,3,3.1
				c1.2,0.5,3.2,0.7,5.9,0.7v1h-26.6v-1c2.4,0,4.2-0.1,5.6-0.2c1.3-0.1,2-0.6,2-1.6c0-0.4-0.3-1.2-0.9-2.4l-10.2-20.3L711.7,420.8z"
				/>
		</g>
	</g>
	<g>
		<g>
			<path class="st3" d="M319.5,454v24c0,0.9,0.1,1.5,0.2,1.7c0.1,0.1,0.2,0.2,0.6,0.4c0.9,0.3,2.7,0.5,5.5,0.5v0.5h-18.4v-0.5
				c1.3,0,2.5,0,3.5-0.1c1-0.1,1.6-0.2,2-0.4c0.4-0.1,0.6-0.3,0.7-0.5c0.1-0.2,0.2-0.7,0.2-1.6v-24c0-0.9-0.1-1.4-0.2-1.6
				c-0.1-0.1-0.3-0.2-0.6-0.4c-0.9-0.3-2.7-0.5-5.5-0.5V451h18.4v0.4c-1.3,0-2.5,0-3.5,0.1c-1,0.1-1.7,0.2-2.1,0.4l-0.5,0.2
				C319.6,452.3,319.5,452.9,319.5,454z"/>
			<path class="st3" d="M335.3,469.6v9.2c0,0.6,0,1,0.1,1.2c0.1,0.1,0.2,0.2,0.4,0.3c0.2,0.1,0.7,0.2,1.3,0.2
				c0.6,0.1,1.1,0.1,1.6,0.1v0.4h-11.9v-0.4c0.7,0,1.4,0,2-0.1c0.7-0.1,1.3-0.2,1.8-0.4c0.2-0.2,0.3-0.6,0.3-1.4v-14.2
				c0-0.3,0-0.6,0-0.8c0-0.3-0.1-0.5-0.2-0.7l-0.3-0.5c-0.3-0.2-1.5-0.3-3.5-0.3v-0.4l8.4-0.7v5.9c0.2-1.3,0.6-2.5,1.2-3.5
				c0.9-1.4,1.8-2.2,2.7-2.3c1-0.1,1.6-0.2,1.9-0.2c2,0,3.5,0.6,4.7,1.8c1,1,1.4,2.2,1.4,3.5v12.4c0,0.6,0,1,0.1,1.2
				c0.1,0.1,0.2,0.2,0.5,0.3c0.2,0.1,0.7,0.2,1.4,0.2c0.7,0.1,1.3,0.1,1.9,0.1v0.4h-11.9v-0.4c0.5,0,1.1,0,1.7-0.1
				c0.7-0.1,1.2-0.2,1.7-0.4c0.2-0.2,0.3-0.6,0.3-1.4V467c0-1.5-0.1-2.6-0.4-3.4c-0.4-1.3-1.1-1.9-2.2-1.9c-1.4,0-2.6,0.9-3.5,2.7
				C336,465.7,335.5,467.4,335.3,469.6z"/>
			<path class="st3" d="M360.3,469.6v9.2c0,0.6,0,1,0.1,1.2c0.1,0.1,0.2,0.2,0.4,0.3c0.2,0.1,0.7,0.2,1.3,0.2
				c0.6,0.1,1.1,0.1,1.6,0.1v0.4h-11.9v-0.4c0.7,0,1.4,0,2-0.1c0.7-0.1,1.3-0.2,1.8-0.4c0.2-0.2,0.3-0.6,0.3-1.4v-14.2
				c0-0.3,0-0.6,0-0.8c0-0.3-0.1-0.5-0.2-0.7l-0.3-0.5c-0.3-0.2-1.5-0.3-3.5-0.3v-0.4l8.4-0.7v5.9c0.2-1.3,0.6-2.5,1.2-3.5
				c0.9-1.4,1.8-2.2,2.7-2.3c1-0.1,1.6-0.2,1.9-0.2c2,0,3.5,0.6,4.7,1.8c1,1,1.4,2.2,1.4,3.5v12.4c0,0.6,0,1,0.1,1.2
				c0.1,0.1,0.2,0.2,0.5,0.3c0.2,0.1,0.7,0.2,1.4,0.2c0.7,0.1,1.3,0.1,1.9,0.1v0.4h-11.9v-0.4c0.5,0,1.1,0,1.7-0.1
				c0.7-0.1,1.2-0.2,1.7-0.4c0.2-0.2,0.3-0.6,0.3-1.4V467c0-1.5-0.1-2.6-0.4-3.4c-0.4-1.3-1.1-1.9-2.2-1.9c-1.4,0-2.6,0.9-3.5,2.7
				C361,465.7,360.6,467.4,360.3,469.6z"/>
			<path class="st3" d="M396.1,471.3c0,3-1,5.5-3.1,7.5c-1.9,1.8-4,2.7-6.4,2.7c-2.4,0-4.5-0.8-6.3-2.5c-2.1-2-3.2-4.5-3.2-7.7
				c0-3,1-5.5,3.1-7.5c1.9-1.8,4-2.7,6.4-2.7c2.4,0,4.5,0.8,6.3,2.5C395,465.6,396.1,468.1,396.1,471.3z M391.2,471.3
				c0-3.4-0.3-5.9-0.9-7.3c-0.7-1.6-1.9-2.4-3.8-2.4c-1.7,0-2.9,0.8-3.6,2.3c-0.7,1.6-1.1,4-1.1,7.4c0,3.4,0.3,5.9,1,7.5
				s1.9,2.3,3.7,2.3c1.7,0,2.9-0.8,3.6-2.4C390.9,477.1,391.2,474.6,391.2,471.3z"/>
			<path class="st3" d="M406.5,481.3l-6.5-17.9c-0.3-0.7-0.5-1.1-0.5-1.3c-0.2-0.3-0.7-0.5-1.6-0.5h-1.1v-0.5h10.7v0.5
				c-0.7,0-1.4,0-2.2,0s-1.1,0.2-1.1,0.6l0.3,0.9l4.4,12l3.1-9.2c0.4-1.1,0.6-1.9,0.6-2.5c0-1.2-1-1.9-3.1-1.9v-0.5h7.9v0.5
				c-1.2,0-2.1,0.3-2.8,0.9c-0.7,0.6-1.4,2-2.2,4.3l-5,14.5H406.5z"/>
			<path class="st3" d="M429.9,467.5v-2.7c0-1.2-0.2-2.1-0.6-2.5c-0.4-0.4-1.3-0.7-2.6-0.7c-1.1,0-2,0.2-2.8,0.6
				c-0.8,0.4-1.3,1-1.6,1.7c0.1,0,0.3,0,0.5,0c0.6,0,1.1,0.2,1.4,0.7c0.4,0.5,0.6,1,0.6,1.6c0,0.7-0.2,1.2-0.7,1.7
				c-0.5,0.4-1,0.7-1.6,0.7c-0.4,0-0.8-0.1-1.1-0.3c-0.9-0.6-1.4-1.3-1.4-2.2c0-0.4,0.1-0.9,0.3-1.5c0.4-1.2,1.5-2.1,3.3-2.7
				c1.2-0.4,2.5-0.6,3.8-0.6c2.3,0,4,0.4,5.2,1.3c1.1,0.8,1.6,1.8,1.6,2.9v10.3c0,1.9,0,3,0.1,3.4c0.2,1.1,0.8,1.6,1.7,1.6
				c0.8,0,1.4-0.4,1.6-1.2c0.3-0.8,0.4-2,0.4-3.6c0-0.4,0-0.9,0-1.3c0-0.4,0-0.9,0-1.3v-0.4h0.6v2c0,0.7,0,1.3,0,1.9
				c0,1.8-0.2,3-0.7,3.6c-0.6,0.8-1.7,1.2-3.4,1.2c-1.3,0-2.3-0.2-3-0.7c-0.8-0.6-1.3-1.5-1.5-2.8c-0.7,1.5-1.6,2.5-2.9,3
				c-0.8,0.3-1.8,0.5-3.1,0.5c-1.3,0-2.4-0.3-3.4-0.9c-1.3-0.8-2-2.1-2-3.8c0-1.7,0.6-3.1,1.9-4.2c1.3-1.1,2.9-1.8,4.7-1.9
				c1.9-0.2,3.1-0.4,3.8-0.7C429.5,469.5,429.9,468.7,429.9,467.5z M429.7,476v-6.2c-0.4,0.5-0.9,0.8-1.7,0.9
				c-0.7,0.1-1.4,0.2-2.1,0.3c-0.9,0.2-1.6,0.7-2.1,1.5c-0.6,0.9-0.9,2.2-0.9,3.9c0,1.8,0.2,3,0.5,3.7c0.4,0.6,0.9,1,1.7,1
				c1.2,0,2.2-0.5,3.2-1.5C429.3,478.6,429.7,477.4,429.7,476z"/>
			<path class="st3" d="M452.6,471.1v2.1c0,0.7,0,1.4,0,2c0,2.2-0.2,3.7-0.7,4.5c-0.7,1.1-2,1.7-4,1.7c-1.9,0-3.2-0.5-4.1-1.4
				c-0.9-0.9-1.3-2.2-1.3-3.9V463h-3.7v-0.4c2.5-0.6,4.5-2.1,5.8-4.4c1-1.9,1.6-4,1.6-6.3h0.8v9.8h5.4v1.4h-5.4v12.6
				c0,1.7,0.1,2.8,0.2,3.3c0.3,1.2,1,1.8,2.1,1.8c1.2,0,2.1-0.7,2.5-2c0.3-0.9,0.4-2.7,0.4-5.3v-2.2H452.6z"/>
			<path class="st3" d="M462.7,461.2v17.6c0,0.6,0,1,0.1,1.2c0.1,0.1,0.2,0.2,0.4,0.3c0.7,0.2,2,0.3,4.1,0.3v0.4h-13.6v-0.4
				c0.9,0,1.7,0,2.4-0.1c0.7-0.1,1.4-0.2,1.9-0.4c0.2-0.2,0.3-0.6,0.3-1.4v-14.5c0-0.6-0.1-1-0.2-1.1c-0.2-0.3-0.4-0.5-0.6-0.6
				c-0.6-0.2-1.8-0.2-3.8-0.2v-0.4L462.7,461.2z M460.2,450.6c0.7,0,1.4,0.2,1.8,0.7c0.5,0.5,0.7,1.1,0.7,1.9c0,0.7-0.2,1.4-0.7,1.9
				c-0.5,0.5-1.1,0.7-1.8,0.7c-0.7,0-1.4-0.2-1.8-0.7c-0.5-0.5-0.7-1.1-0.7-1.9c0-0.7,0.2-1.4,0.7-1.9
				C458.9,450.9,459.5,450.6,460.2,450.6z"/>
			<path class="st3" d="M487.8,471.3c0,3-1,5.5-3.1,7.5c-1.9,1.8-4,2.7-6.4,2.7c-2.4,0-4.5-0.8-6.3-2.5c-2.1-2-3.2-4.5-3.2-7.7
				c0-3,1-5.5,3.1-7.5c1.9-1.8,4-2.7,6.4-2.7c2.4,0,4.5,0.8,6.3,2.5C486.8,465.6,487.8,468.1,487.8,471.3z M483,471.3
				c0-3.4-0.3-5.9-0.9-7.3c-0.7-1.6-1.9-2.4-3.8-2.4c-1.7,0-2.9,0.8-3.6,2.3c-0.7,1.6-1.1,4-1.1,7.4c0,3.4,0.3,5.9,1,7.5
				c0.6,1.6,1.9,2.3,3.7,2.3c1.7,0,2.9-0.8,3.6-2.4C482.6,477.1,483,474.6,483,471.3z"/>
			<path class="st3" d="M497.9,469.6v9.2c0,0.6,0,1,0.1,1.2c0.1,0.1,0.2,0.2,0.4,0.3c0.2,0.1,0.7,0.2,1.3,0.2
				c0.6,0.1,1.1,0.1,1.6,0.1v0.4h-11.9v-0.4c0.7,0,1.4,0,2-0.1c0.7-0.1,1.3-0.2,1.8-0.4c0.2-0.2,0.3-0.6,0.3-1.4v-14.2
				c0-0.3,0-0.6,0-0.8s-0.1-0.5-0.2-0.7l-0.3-0.5c-0.3-0.2-1.5-0.3-3.5-0.3v-0.4l8.4-0.7v5.9c0.2-1.3,0.6-2.5,1.2-3.5
				c0.9-1.4,1.8-2.2,2.7-2.3c1-0.1,1.6-0.2,1.9-0.2c2,0,3.5,0.6,4.7,1.8c1,1,1.4,2.2,1.4,3.5v12.4c0,0.6,0,1,0.1,1.2
				c0.1,0.1,0.2,0.2,0.5,0.3c0.2,0.1,0.7,0.2,1.4,0.2c0.7,0.1,1.3,0.1,1.9,0.1v0.4h-11.9v-0.4c0.5,0,1.1,0,1.7-0.1
				c0.7-0.1,1.2-0.2,1.7-0.4c0.2-0.2,0.3-0.6,0.3-1.4V467c0-1.5-0.1-2.6-0.4-3.4c-0.4-1.3-1.1-1.9-2.2-1.9c-1.4,0-2.6,0.9-3.5,2.7
				C498.7,465.7,498.2,467.4,497.9,469.6z"/>
			<path class="st3" d="M525.7,462.6c1.2-0.9,1.8-1.4,1.9-1.4v7l-0.4-0.1c-0.4-1.9-1.2-3.4-2.3-4.6c-1.2-1.3-2.5-1.9-4-1.9
				c-1.1,0-2,0.2-2.7,0.7c-1,0.6-1.4,1.6-1.4,2.9c0,1.1,0.5,2,1.6,2.6c0.7,0.4,2.2,0.9,4.5,1.4c2.2,0.5,3.8,1.1,4.7,1.9
				c1.3,1,1.9,2.6,1.9,4.8c0,2-0.7,3.5-2,4.5c-1.1,0.8-2.5,1.2-4.1,1.2c-1.4,0-2.3-0.1-2.9-0.3c-0.9-0.3-1.8-0.9-2.8-2
				c-1.2,1.5-1.9,2.2-2,2.3v-8.2h0.3c0.5,1.9,1,3.3,1.3,4c0.5,1,1,1.8,1.5,2.3c0.7,0.7,1.4,1.1,2,1.3c0.6,0.2,1.6,0.3,2.9,0.3
				c1,0,1.8-0.2,2.4-0.7c0.7-0.6,1.1-1.4,1.1-2.5c0-1.4-0.5-2.4-1.5-3.1c-0.8-0.5-2.2-1-4.1-1.4c-2-0.4-3.5-1.1-4.6-2
				c-1.3-1.1-2-2.5-2-4.3c0-1.6,0.6-3,1.7-4.1c1.1-1.1,2.4-1.7,4-1.7c1.2,0,2.3,0.2,3.2,0.6C524.9,462.3,525.5,462.6,525.7,462.6z"
				/>
		</g>
	</g>
</g>
</svg>
